<?xml version="1.0" standalone="no"?>
<!DOCTYPE svg PUBLIC "-//W3C//DTD SVG 20010904//EN"
 "http://www.w3.org/TR/2001/REC-SVG-20010904/DTD/svg10.dtd">
<svg version="1.0" xmlns="http://www.w3.org/2000/svg"
 width="1000.000000pt" height="1000.000000pt" viewBox="0 0 1000.000000 1000.000000"
 preserveAspectRatio="xMidYMid meet">
<metadata>
Created by potrace 1.14, written by Peter Selinger 2001-2017
</metadata>
<g transform="translate(0.000000,1000.000000) scale(0.100000,-0.100000)"
fill="#000000" stroke="none">
<path d="M4415 9984 c-554 -56 -1108 -212 -1610 -453 -508 -245 -950 -565
-1370 -993 -270 -275 -472 -525 -678 -838 -392 -599 -603 -1145 -727 -1881
l-31 -186 3 -734 3 -734 28 -140 c89 -448 229 -865 427 -1270 157 -321 350
-612 551 -831 46 -50 134 -151 194 -224 129 -157 406 -439 556 -567 275 -234
582 -436 849 -561 315 -146 943 -367 1296 -455 327 -82 515 -107 859 -114 355
-7 796 25 1274 92 924 130 1578 436 2311 1079 310 272 559 564 669 784 67 134
80 135 -202 -9 -140 -71 -258 -129 -263 -129 -5 0 90 51 211 113 121 62 230
119 243 127 48 30 350 537 487 815 285 581 418 1108 456 1805 13 245 -2 760
-22 760 -5 0 -9 -37 -9 -82 0 -228 -59 -560 -147 -833 -172 -532 -555 -1053
-1036 -1406 -621 -458 -1719 -763 -2987 -830 -792 -42 -1719 106 -2410 383
-831 334 -1534 917 -1957 1623 -206 343 -312 644 -360 1018 -25 193 -25 738 0
932 90 698 349 1382 724 1912 245 347 608 704 981 966 408 287 947 537 1397
651 295 74 975 176 1173 176 39 0 72 4 72 9 0 33 -692 52 -955 25z m4065
-8199 c-25 -13 -49 -24 -55 -24 -5 0 10 11 35 24 25 13 50 24 55 24 6 0 -10
-11 -35 -24z m-70 -29 c0 -2 -82 -39 -182 -82 -636 -269 -1279 -471 -1908
-598 -124 -25 -234 -46 -245 -45 -11 0 75 20 190 44 621 128 1212 307 1806
546 108 43 225 92 260 108 64 30 79 35 79 27z m-2367 -733 c-7 -2 -21 -2 -30
0 -10 3 -4 5 12 5 17 0 24 -2 18 -5z m-60 -10 c-7 -2 -21 -2 -30 0 -10 3 -4 5
12 5 17 0 24 -2 18 -5z m-70 -10 c-7 -2 -19 -2 -25 0 -7 3 -2 5 12 5 14 0 19
-2 13 -5z m-60 -10 c-7 -2 -21 -2 -30 0 -10 3 -4 5 12 5 17 0 24 -2 18 -5z
m-80 -10 c-7 -2 -19 -2 -25 0 -7 3 -2 5 12 5 14 0 19 -2 13 -5z m-70 -10 c-7
-2 -19 -2 -25 0 -7 3 -2 5 12 5 14 0 19 -2 13 -5z m-86 -9 c-3 -3 -12 -4 -19
-1 -8 3 -5 6 6 6 11 1 17 -2 13 -5z"/>
<path d="M6650 8419 c-431 -37 -1012 -157 -1500 -310 -1166 -367 -2266 -977
-3204 -1778 -195 -167 -667 -632 -811 -799 l-88 -103 17 -147 c34 -292 93
-506 196 -717 44 -90 161 -283 195 -323 2 -2 130 37 286 87 945 298 1939 579
2679 756 348 83 1193 267 3324 725 1200 257 1514 309 1975 327 l163 6 -6 56
c-16 140 -91 420 -163 615 -57 154 -212 471 -296 603 -77 121 -188 271 -259
348 -88 96 -328 243 -578 353 -323 143 -656 233 -1062 288 -134 19 -707 27
-868 13z"/>
</g>
</svg>
